<?xml version="1.0" encoding="utf-8"?>
<!-- Generator: Adobe Illustrator 27.4.0, SVG Export Plug-In . SVG Version: 6.00 Build 0)  -->
<svg version="1.1" id="Layer_1" xmlns="http://www.w3.org/2000/svg" xmlns:xlink="http://www.w3.org/1999/xlink" x="0px" y="0px"
	 viewBox="0 0 425.2 425.2" style="enable-background:new 0 0 425.2 425.2;" xml:space="preserve">
<style type="text/css">
	.st0{fill:#FFFFFF;}
</style>
<g>
	<g>
		<path class="st0" d="M71.3,335.2c-5.2,0-9.6-1.8-13.1-5.3c-3.5-3.5-5.2-7.9-5.2-13.1c0-5.2,1.7-9.5,5.2-13.1
			c3.5-3.5,7.9-5.3,13.1-5.3c3.4,0,6.5,0.8,9.2,2.4c2.6,1.5,4.6,3.5,6,5.9c0.2,0.3,0.1,0.8-0.3,0.9l-6.5,3.8
			c-0.3,0.2-0.7,0.1-0.9-0.2c-0.7-1.2-1.6-2.1-2.8-2.8c-1.4-0.8-3-1.3-4.8-1.3c-2.7,0-4.9,0.9-6.7,2.7c-1.8,1.8-2.6,4.1-2.6,6.8
			c0,2.7,0.9,5,2.6,6.8c1.8,1.8,4,2.6,6.7,2.6c1.8,0,3.4-0.4,4.8-1.2c1.2-0.7,2.2-1.6,2.8-2.8c0.2-0.3,0.6-0.4,0.9-0.2l6.6,3.7
			c0.3,0.2,0.5,0.6,0.3,1c-1.5,2.5-3.5,4.5-6.1,6C77.7,334.4,74.7,335.2,71.3,335.2z"/>
		<path class="st0" d="M100.4,292L100.4,292l0-1h0v-4.6c0-0.5-0.4-0.8-0.9-0.7l-7.6,2.3c-0.3,0.1-0.5,0.4-0.5,0.7v4.5h0v40.5
			c0,0.4,0.3,0.7,0.7,0.7h7.6c0.4,0,0.7-0.3,0.7-0.7v-38.8h0V292z"/>
		<path class="st0" d="M128,318.3v-18.1c0-0.4,0.3-0.7,0.7-0.7h7.6c0.4,0,0.7,0.3,0.7,0.7v33.3c0,0.4-0.3,0.7-0.7,0.7h-7.6
			c-0.4,0-0.7-0.3-0.7-0.7v-1.2c0-0.6-0.8-0.9-1.2-0.5c-2.1,2.2-5.2,3.3-9.1,3.3c-3.8,0-6.9-1.3-9.4-3.8c-2.5-2.6-3.7-6.1-3.7-10.6
			v-20.6c0-0.4,0.3-0.7,0.7-0.7h7.6c0.4,0,0.7,0.3,0.7,0.7v19.5c0,2.3,0.6,4,1.8,5.3c1.2,1.2,2.9,1.9,5,1.9c2.4,0,4.2-0.7,5.6-2.2
			C127.3,323.2,128,321.1,128,318.3z"/>
		<path class="st0" d="M173.4,303.9c-3.3-3.6-7.3-5.3-11.9-5.3c-4.2,0-7.5,1.3-10.1,3.8c-0.4,0.4-1.2,0.1-1.2-0.5V292h0v-5.6
			c0-0.5-0.4-0.8-0.9-0.7l-7.6,2.3c-0.3,0.1-0.5,0.4-0.5,0.7v4.5h0v40.4c0,0.4,0.3,0.7,0.7,0.7h7.6c0.4,0,0.7-0.3,0.7-0.7V332
			c0-0.6,0.7-0.9,1.2-0.5c2.5,2.5,5.9,3.8,10.1,3.8c4.7,0,8.7-1.8,11.9-5.3c3.3-3.5,5-7.9,5-13.1
			C178.4,311.8,176.7,307.5,173.4,303.9z M166.6,324c-1.8,1.8-4.1,2.7-6.9,2.7s-5.1-0.9-6.9-2.7c-1.8-1.9-2.7-4.2-2.7-7.1
			c0-2.9,0.9-5.2,2.7-7c1.8-1.9,4.1-2.8,6.9-2.8s5.1,0.9,6.9,2.8c1.9,1.8,2.8,4.1,2.8,7C169.4,319.8,168.5,322.1,166.6,324z"/>
		<path class="st0" d="M216.8,320.6h-24.6c-0.5,0-0.8,0.5-0.7,0.9c1.4,3.7,4.5,5.6,9.5,5.6c3.2,0,5.7-1,7.4-3
			c0.2-0.3,0.6-0.3,0.9-0.2l6,3.5c0.4,0.2,0.5,0.7,0.2,1c-3.4,4.5-8.3,6.8-14.7,6.8c-5.7,0-10.3-1.7-13.8-5.2
			c-3.5-3.5-5.2-7.8-5.2-13.1c0-5.2,1.7-9.5,5.1-13.1c3.4-3.5,7.8-5.3,13.2-5.3c5.1,0,9.3,1.8,12.6,5.3c3.3,3.5,5,7.9,5,13.1
			c0,0.8-0.1,1.9-0.3,3.1C217.5,320.3,217.2,320.6,216.8,320.6z M192,313.6h15.9c0.5,0,0.8-0.5,0.7-0.9c-0.6-1.8-1.5-3.3-2.8-4.3
			c-1.6-1.2-3.4-1.8-5.5-1.8c-2.4,0-4.4,0.6-6,1.8c-1.4,1.1-2.3,2.5-2.9,4.3C191.2,313.2,191.6,313.6,192,313.6z"/>
		<path class="st0" d="M240.3,335.2c-5.2,0-9.6-1.8-13.1-5.3c-3.5-3.5-5.2-7.9-5.2-13.1c0-5.2,1.7-9.5,5.2-13.1
			c3.5-3.5,7.9-5.3,13.1-5.3c3.4,0,6.5,0.8,9.2,2.4c2.6,1.5,4.6,3.5,6,5.9c0.2,0.3,0.1,0.8-0.3,0.9l-6.5,3.8
			c-0.3,0.2-0.7,0.1-0.9-0.2c-0.7-1.2-1.6-2.1-2.8-2.8c-1.4-0.8-3-1.3-4.8-1.3c-2.7,0-4.9,0.9-6.7,2.7c-1.8,1.8-2.6,4.1-2.6,6.8
			c0,2.7,0.9,5,2.6,6.8c1.8,1.8,4,2.6,6.7,2.6c1.8,0,3.4-0.4,4.8-1.2c1.2-0.7,2.2-1.6,2.8-2.8c0.2-0.3,0.6-0.4,0.9-0.2l6.6,3.7
			c0.3,0.2,0.5,0.6,0.3,1c-1.5,2.5-3.5,4.5-6.1,6C246.7,334.4,243.6,335.2,240.3,335.2z"/>
		<path class="st0" d="M293.4,320.3h-24.6c-0.5,0-0.8,0.5-0.7,0.9c1.4,3.7,4.5,5.6,9.5,5.6c3.2,0,5.7-1,7.4-3
			c0.2-0.3,0.6-0.3,0.9-0.2l6,3.5c0.4,0.2,0.5,0.7,0.2,1c-3.4,4.5-8.3,6.8-14.7,6.8c-5.7,0-10.3-1.7-13.8-5.2
			c-3.5-3.5-5.2-7.8-5.2-13.1c0-5.2,1.7-9.5,5.1-13.1c3.4-3.5,7.8-5.3,13.2-5.3c5.1,0,9.3,1.8,12.6,5.3c3.3,3.5,5,7.9,5,13.1
			c0,0.8-0.1,1.9-0.3,3.1C294.1,320.1,293.8,320.3,293.4,320.3z M268.6,313.4h15.9c0.5,0,0.8-0.5,0.7-0.9c-0.6-1.8-1.5-3.3-2.8-4.3
			c-1.6-1.2-3.4-1.8-5.5-1.8c-2.4,0-4.4,0.6-6,1.8c-1.3,1.1-2.3,2.5-2.9,4.3C267.8,312.9,268.1,313.4,268.6,313.4z"/>
		<path class="st0" d="M307.5,300v2.4c0,0.7,0.9,1,1.2,0.4c0.7-1,1.7-1.9,2.8-2.6c1.7-1,3.6-1.6,5.8-1.7c0.4,0,0.7,0.3,0.7,0.7v8.5
			c0,0.4-0.3,0.7-0.7,0.7c-2.4-0.2-4.6,0.4-6.6,1.7c-2.1,1.4-3.2,3.8-3.2,7.2v15.9c0,0.4-0.3,0.7-0.7,0.7h-7.6
			c-0.4,0-0.7-0.3-0.7-0.7V300c0-0.4,0.3-0.7,0.7-0.7h7.6C307.2,299.3,307.5,299.6,307.5,300z"/>
		<path class="st0" d="M322.3,292.8c0-0.3,0.2-0.6,0.5-0.7l7.6-2.3c0.4-0.1,0.9,0.2,0.9,0.7v8.1c0,0.4,0.3,0.7,0.7,0.7h6.5
			c0.4,0,0.7,0.3,0.7,0.7v7.2c0,0.4-0.3,0.7-0.7,0.7h-6.5c-0.4,0-0.7,0.3-0.7,0.7v13.7c0,1.2,0.3,2.1,0.9,2.6
			c0.6,0.6,1.5,0.9,2.6,0.9c1,0.1,2.2,0.1,3.6,0c0.4,0,0.7,0.3,0.7,0.7v6.8c0,0.4-0.3,0.7-0.6,0.7c-5.7,0.6-9.8,0-12.3-1.8
			c-2.6-1.8-3.9-5.1-3.9-10"/>
		<path class="st0" d="M374.7,329.7c-3.5,3.5-7.9,5.3-13.1,5.3c-5.2,0-9.5-1.8-13.1-5.3c-3.5-3.5-5.3-7.9-5.3-13.1
			c0-5.1,1.8-9.5,5.3-13c3.6-3.6,7.9-5.3,13.1-5.3c5.1,0,9.5,1.8,13.1,5.3c3.6,3.6,5.3,7.9,5.3,13
			C380,321.8,378.2,326.1,374.7,329.7z M354.9,323.5c1.8,1.8,4.1,2.7,6.7,2.7c2.7,0,4.9-0.9,6.7-2.7c1.8-1.8,2.7-4.1,2.7-6.9
			s-0.9-5.1-2.7-6.9c-1.8-1.8-4.1-2.7-6.7-2.7c-2.7,0-4.9,0.9-6.7,2.7c-1.8,1.9-2.6,4.1-2.6,6.9
			C352.2,319.4,353.1,321.7,354.9,323.5z"/>
	</g>
	<g>
		<path class="st0" d="M212.5,269.9c25.6,0,47.5-9.1,65.8-27.4c18-18,27.1-39.9,27.1-65.5c0-12.8-2.3-24.8-6.8-35.8l-56.1,84
			l-0.5,0.5l-2.3,3.4h-0.3c-0.8,1-1.8,2.1-2.6,2.9c-2.1,2.1-4.2,3.9-6.3,5.5c-2.9,1.8-5.7,3.4-8.6,4.2c-3.1,1-6.3,1.6-9.4,1.6
			c-3.1,0-6.3-0.5-9.1-1.3c-2.9-0.8-5.7-2.3-8.6-4.2c-2.3-1.6-4.7-3.4-6.8-5.5c-1-1-2.1-2.3-3.1-3.7l0,0l-2.6-3.7l-54.5-77.5
			l-2.6-3.9l0,0l0,0l0,0c-3.9,10.2-5.7,21.1-5.7,32.9c0,25.6,9.1,47.5,27.4,65.5C165,260.8,186.7,269.9,212.5,269.9 M154.3,104.5
			c16.7-14.4,35.2-20.4,57.9-20.4c20.1,0,38.1,5.5,53.5,17l-0.8,1.3l-52.2,79.3l-43.6-63.2l-3.7-5c0,0-2.9-3.4-3.9-4.4
			C159,106.8,155.9,105.2,154.3,104.5"/>
		<path class="st0" d="M323.9,77.8c-0.5-1.8-1.6-3.7-2.9-5c-1.3-1.6-2.9-2.9-4.7-3.9c-1.8-1-3.7-1.8-5.7-2.3
			c-3.1-0.8-5.7-0.5-8.4,0.3c-2.6,1-4.7,2.9-6.5,5.5c-26.4,40.2-52.5,80.4-78.8,120.6c-1.8,2.3-3.9,4.2-7.3,0.8
			c-15.9-23.2-32.1-46.5-48-69.7c-1.3-1.8-2.6-3.4-3.7-5c-1.3-1.3-2.3-2.6-3.9-3.1c-1.3-0.8-3.1-1-4.7-1.3c-1.8,0-3.7,0.3-6,1
			c-1.8,0.5-3.7,1.6-5.5,2.9c-1.8,1.3-3.1,2.6-4.4,4.4c-1.3,1.8-2.1,3.7-2.6,5.7s-0.3,4.2,0.5,6.5c0.3,1,0.8,2.1,1.6,3.1
			c0.8,1,1.6,2.6,3.1,4.4c17.7,25.8,36,51.7,54.3,77.5c12.5,18,32.1,19.3,44.6,0c28.7-43.3,57.4-86.6,86.1-130
			c0.8-1.3,1.3-2.6,2.1-3.7c0.5-1,0.8-2.1,1.3-3.1C324.7,81.8,324.5,79.9,323.9,77.8"/>
	</g>
</g>
</svg>
